{"title":"Doctor Jekyll y el Hombre Lobo (1972) DVD5","uid":11744107,"size":4430153728,"categoryP":"video","categoryS":"movies","magnet":"?xt=urn:btih:32f856bfeabaa5a8dae97b5035790a3f753017b3&amp;dn=Doctor+Jekyll+y+el+Hombre+Lobo+%281972%29+DVD5&amp;tr=udp%3A%2F%2Ftracker.openbittorrent.com%3A80&amp;tr=udp%3A%2F%2Fopen.demonii.com%3A1337&amp;tr=udp%3A%2F%2Ftracker.coppersurfer.tk%3A6969&amp;tr=udp%3A%2F%2Fexodus.desync.com%3A6969","seeders":0,"leechers":1,"uploader":"yfjfrj","files":29,"time":1425922228,"description":"Paul Naschy returns as El Hombre Lobo for the sixth time as he searches for a cure to his full moon maddness by visiting the grandson of the infamous Dr. Jekyll. What ensues next is a lover's triangle, and a savage sadistic Mr. Hyde who roams modern London and transforms into a werewolf on the disco floor.\n\nDVDInfo:\nTitle: Dr. Jekyll y el Hombre Lobo_1972\nSize: 4.13 Gb ( 4 326 322,00 KBytes ) - DVD-5\nEnabled regions: 1, 2, 3, 4, 5, 6, 7, 8\n\nVTS_01 :\n  Play Length: 01:23:05\n  Video: PAL 16:9 (720x576) VBR, Auto Letterboxed\n  Audio:\n      Russian (Dolby AC3, 2 ch)\n      Esperanto (Dolby AC3, 2 ch)\n  Subtitles:\n      Russian\n\nVTS_02 :\n  Play Length: 00:01:08\n  Video: PAL 4:3 (720x576) VBR\n  Audio:\n      English (LinearPCM, 2 ch)\n\nVTS_03 :\n  Play Length: 00:01:00\n  Video: PAL 4:3 (720x576) VBR\n  Audio:\n      Not specified (LinearPCM, 2 ch)\n  Subtitles:\n      Not specified\n\nVTS_04 :\n  Play Length: 00:00:40\n  Video: PAL 4:3 (720x576) VBR\n  Audio:\n      Not specified (LinearPCM, 2 ch)\n  Subtitles:\n      Not specified\n\nVTS_05 :\n  Play Length: 00:01:00\n  Video: PAL 4:3 (720x576) VBR\n  Audio:\n      English (LinearPCM, 2 ch)\n  Subtitles:\n      Not specified\n\nVTS_06 :\n  Play Length: 00:00:40\n  Video: PAL 4:3 (720x576) VBR\n  Audio:\n      Not specified (LinearPCM, 2 ch)\n  Subtitles:\n      Not specified\n\nVTS_07 :\n  Play Length: 00:19:06\n  Video: PAL 4:3 (720x576) VBR\n  Audio:\n      Espanol (Dolby AC3, 2 ch)\n\nMediaInfo:\nGeneral\nFormat                                   : MPEG-PS\nFile size                                : 1 024 MiB\nDuration                                 : 25mn 23s\nOverall bit rate mode                    : Variable\nOverall bit rate                         : 5 640 Kbps\n\nVideo\nID                                       : 224 (0xE0)\nFormat                                   : MPEG Video\nFormat version                           : Version 2\nFormat profile                           : Main@Main\nFormat settings, BVOP                    : Yes\nFormat settings, Matrix                  : Default\nFormat settings, GOP                     : M=3, N=12\nFormat settings, picture structure       : Frame\nDuration                                 : 25mn 23s\nBit rate mode                            : Variable\nBit rate                                 : 4 888 Kbps\nMaximum bit rate                         : 5 000 Kbps\nWidth                                    : 720 pixels\nHeight                                   : 576 pixels\nDisplay aspect ratio                     : 16:9\nFrame rate                               : 25.000 fps\nStandard                                 : NTSC\nColor space                              : YUV\nChroma subsampling                       : 4:2:0\nBit depth                                : 8 bits\nScan type                                : Interlaced\nScan order                               : Bottom Field First\nCompression mode                         : Lossy\nBits/(Pixel*Frame)                       : 0.471\nTime code of first frame                 : 00:00:00:00\nTime code source                         : Group of pictures header\nGOP, Open/Closed                         : Closed\nStream size                              : 887 MiB (87%)\nColor primaries                          : BT.601 PAL\nTransfer characteristics                 : BT.470 System B, BT.470 System G\nMatrix coefficients                      : BT.601\n\nAudio #1\nID                                       : 189 (0xBD)-128 (0x80)\nFormat                                   : AC-3\nFormat/Info                              : Audio Coding 3\nMode extension                           : CM (complete main)\nFormat settings, Endianness              : Big\nMuxing mode                              : DVD-Video\nDuration                                 : 25mn 22s\nBit rate mode                            : Constant\nBit rate                                 : 192 Kbps\nChannel(s)                               : 2 channels\nChannel positions                        : Front: L R\nSampling rate                            : 48.0 KHz\nBit depth                                : 16 bits\nCompression mode                         : Lossy\nStream size                              : 34.9 MiB (3%)\n\nAudio #2\nID                                       : 189 (0xBD)-129 (0x81)\nFormat                                   : AC-3\nFormat/Info                              : Audio Coding 3\nMode extension                           : CM (complete main)\nFormat settings, Endianness              : Big\nMuxing mode                              : DVD-Video\nDuration                                 : 25mn 22s\nBit rate mode                            : Constant\nBit rate                                 : 448 Kbps\nChannel(s)                               : 2 channels\nChannel positions                        : Front: L R\nSampling rate                            : 48.0 KHz\nBit depth                                : 16 bits\nCompression mode                         : Lossy\nStream size                              : 81.3 MiB (8%)\n\nText","torrent":{"xt":"urn:btih:32f856bfeabaa5a8dae97b5035790a3f753017b3","amp;dn":"Doctor+Jekyll+y+el+Hombre+Lobo+%281972%29+DVD5","amp;tr":["udp%3A%2F%2Ftracker.openbittorrent.com%3A80","udp%3A%2F%2Fopen.demonii.com%3A1337","udp%3A%2F%2Ftracker.coppersurfer.tk%3A6969","udp%3A%2F%2Fexodus.desync.com%3A6969"],"infoHash":"32f856bfeabaa5a8dae97b5035790a3f753017b3","infoHashBuffer":{"type":"Buffer","data":[50,248,86,191,234,186,165,168,218,233,123,80,53,121,10,63,117,48,23,179]},"announce":[],"urlList":[]}}